<svg width="140" height="140" viewBox="0 0 140 140" fill="none" xmlns="http://www.w3.org/2000/svg">
<g clip-path="url(#clip0_2_1286)">
<path d="M51.908 86.1977C51.8033 86.0603 51.606 86.0358 51.4715 86.1427C49.1065 88.0367 47.2499 89.4418 45.453 90.6912C45.3125 90.789 45.2736 90.9875 45.3723 91.1311C45.432 91.2227 45.5307 91.2686 45.6294 91.2686C45.6892 91.2686 45.752 91.2502 45.8028 91.2136C47.6116 89.955 49.4772 88.5437 51.8541 86.6407C51.9917 86.5368 52.0126 86.3352 51.908 86.1977Z" fill="#767676"/>
<path d="M42.3471 93.6933C42.4099 93.6933 42.4727 93.6749 42.5295 93.6322L43.3577 93.0213C43.4953 92.9175 43.5282 92.722 43.4265 92.5785C43.3248 92.4349 43.1305 92.4044 42.993 92.5083L42.1647 93.1191C42.0272 93.2229 41.9943 93.4184 42.0959 93.5619C42.1557 93.6474 42.2514 93.6933 42.3471 93.6933Z" fill="#767676"/>
<path d="M61.4699 86.335L59.4009 89.6248C59.3082 89.7715 59.3501 89.97 59.4936 90.0647C59.5444 90.0983 59.6042 90.1166 59.661 90.1166C59.7627 90.1166 59.8643 90.0647 59.9212 89.97L61.9902 86.6802C62.0829 86.5336 62.041 86.335 61.8975 86.2403C61.757 86.1456 61.5626 86.1884 61.4699 86.335Z" fill="#767676"/>
<path d="M51.3826 101.672C51.4783 101.672 51.571 101.627 51.6338 101.541L58.7915 91.5462C58.8931 91.4056 58.8632 91.2071 58.7227 91.1032C58.5852 90.9994 58.3908 91.0299 58.2892 91.1735L51.1315 101.168C51.0298 101.309 51.0597 101.507 51.2002 101.611C51.254 101.654 51.3198 101.672 51.3826 101.672Z" fill="#767676"/>
<path d="M67.3391 86.4113C66.6066 89.2368 65.7784 92.0868 64.9771 94.8421C63.9516 98.3732 62.8902 102.024 62.0172 105.668C61.9754 105.839 62.077 106.01 62.2445 106.053C62.2684 106.059 62.2953 106.062 62.3192 106.062C62.4597 106.062 62.5853 105.964 62.6212 105.82C63.4882 102.192 64.5466 98.5474 65.5721 95.0254C66.3734 92.264 67.2045 89.4079 67.94 86.5762C67.9849 86.4082 67.8862 86.2341 67.7188 86.1883C67.5573 86.1425 67.3839 86.2433 67.3391 86.4113Z" fill="#767676"/>
<path d="M46.8394 98.4554C46.9232 98.4554 47.0039 98.4218 47.0667 98.3546L53.2826 91.6377C53.3992 91.5094 53.3962 91.3109 53.2706 91.1887C53.145 91.0696 52.9507 91.0757 52.8311 91.2009L46.6152 97.9178C46.4986 98.0461 46.5016 98.2447 46.6272 98.3669C46.687 98.428 46.7617 98.4554 46.8394 98.4554Z" fill="#767676"/>
<path d="M42.1849 86.0876L38.9439 87.7522C38.7914 87.8316 38.7286 88.021 38.8064 88.1767C38.8602 88.2867 38.9708 88.3508 39.0844 88.3508C39.1323 88.3508 39.1801 88.3386 39.2249 88.3172L42.4659 86.6526C42.6184 86.5732 42.6812 86.3839 42.6034 86.2281C42.5227 86.0723 42.3374 86.0082 42.1849 86.0876Z" fill="#767676"/>
<path d="M54.6138 89.9394L57.5587 86.6833C57.6753 86.555 57.6664 86.3534 57.5408 86.2343C57.4152 86.1152 57.2179 86.1243 57.1013 86.2526L54.1563 89.5087C54.0397 89.637 54.0487 89.8386 54.1743 89.9578C54.2341 90.0127 54.3088 90.0433 54.3836 90.0433C54.4673 90.0402 54.551 90.0066 54.6138 89.9394Z" fill="#767676"/>
<path d="M65.0331 86.6528C65.1048 86.494 65.0361 86.3046 64.8776 86.2313C64.7221 86.161 64.5368 86.2283 64.465 86.3901C63.4485 88.678 62.3422 90.9721 61.2719 93.1897C59.6873 96.4765 58.0488 99.8732 56.6645 103.328C56.5988 103.49 56.6765 103.676 56.835 103.74C56.8738 103.756 56.9127 103.765 56.9516 103.765C57.0741 103.765 57.1907 103.691 57.2386 103.566C58.6139 100.13 60.2493 96.7422 61.828 93.4677C62.9043 91.247 64.0135 88.9468 65.0331 86.6528Z" fill="#767676"/>
<path d="M75.5839 107.158C75.6048 107.317 75.7394 107.433 75.8919 107.433C75.9038 107.433 75.9188 107.433 75.9337 107.43C76.1042 107.409 76.2237 107.247 76.2028 107.076C75.7693 103.682 75.4583 100.212 75.1564 96.8581C74.8484 93.4155 74.5285 89.8568 74.074 86.3683C74.0501 86.1942 73.8976 86.0751 73.7242 86.0965C73.5538 86.1209 73.4342 86.2798 73.4581 86.4539C73.9096 89.9301 74.2295 93.4827 74.5375 96.9192C74.8364 100.279 75.1504 103.752 75.5839 107.158Z" fill="#767676"/>
<path d="M78.8544 95.0074C80.0324 98.6393 81.2493 102.396 82.2539 106.148C82.2928 106.288 82.4153 106.383 82.5529 106.383C82.5798 106.383 82.6067 106.38 82.6336 106.371C82.798 106.325 82.8967 106.151 82.8519 105.983C81.8443 102.213 80.6244 98.4499 79.4435 94.8089C78.5495 92.0506 77.6256 89.1976 76.8004 86.369C76.7526 86.201 76.5792 86.1063 76.4147 86.1552C76.2503 86.2041 76.1576 86.3812 76.2054 86.5492C77.0336 89.387 77.9605 92.243 78.8544 95.0074Z" fill="#767676"/>
<path d="M89.9833 103.399C90.0401 103.502 90.1447 103.56 90.2524 103.56C90.3032 103.56 90.357 103.548 90.4049 103.521C90.5544 103.435 90.6082 103.24 90.5215 103.09C89.4332 101.123 88.3449 99.1129 87.2925 97.167C85.364 93.6022 83.3698 89.9182 81.2979 86.3565C81.2112 86.2068 81.0198 86.1579 80.8733 86.2465C80.7268 86.3351 80.676 86.5306 80.7657 86.6803C82.8347 90.2329 84.8259 93.9138 86.7513 97.4725C87.8067 99.4153 88.895 101.428 89.9833 103.399Z" fill="#767676"/>
<path d="M94.4913 90.7275C94.5511 90.7794 94.6228 90.8039 94.6946 90.8039C94.7813 90.8039 94.868 90.7672 94.9308 90.6939C95.0414 90.5595 95.0265 90.3609 94.8979 90.2479L90.165 86.1026C90.0364 85.9896 89.8391 86.0049 89.7284 86.1362C89.6178 86.2706 89.6328 86.4692 89.7613 86.5822L94.4913 90.7275Z" fill="#767676"/>
<path d="M99.1205 95.169C99.1803 95.2271 99.2581 95.2546 99.3328 95.2546C99.4165 95.2546 99.4973 95.221 99.56 95.1538C99.6766 95.0255 99.6707 94.8239 99.5451 94.7048L98.3013 93.5106C98.1758 93.3915 97.9784 93.3976 97.8618 93.5259C97.7452 93.6541 97.7512 93.8557 97.8768 93.9748L99.1205 95.169Z" fill="#767676"/>
<path d="M70.3794 86.1456C70.212 86.1334 70.0565 86.2556 70.0416 86.4328C69.614 91.0117 69.1715 95.9755 68.6453 102.048C68.6303 102.222 68.7559 102.378 68.9263 102.393C68.9353 102.393 68.9442 102.393 68.9532 102.393C69.1117 102.393 69.2492 102.268 69.2612 102.103C69.7844 96.0305 70.2269 91.0697 70.6545 86.4908C70.6754 86.3197 70.5528 86.1639 70.3794 86.1456Z" fill="#767676"/>
<path d="M68.9388 102.519C68.7744 102.507 68.6159 102.632 68.601 102.806L68.2063 107.125C68.1913 107.299 68.3169 107.455 68.4873 107.47C68.4963 107.47 68.5083 107.473 68.5172 107.473C68.6757 107.473 68.8103 107.351 68.8252 107.186L69.2199 102.867C69.2348 102.69 69.1092 102.534 68.9388 102.519Z" fill="#767676"/>
<path d="M95.1971 100.035C95.2658 100.035 95.3346 100.011 95.3914 99.9651C95.526 99.8551 95.5469 99.6565 95.4393 99.5191C91.8963 94.983 88.3892 90.5354 85.0137 86.2987C84.9061 86.1612 84.7087 86.1429 84.5772 86.2528C84.4456 86.3628 84.4247 86.5644 84.5323 86.6988C87.9049 90.9356 91.412 95.3801 94.9519 99.9162C95.0177 99.9956 95.1074 100.035 95.1971 100.035Z" fill="#767676"/>
<path d="M99.2245 88.275C99.3291 88.275 99.4278 88.2231 99.4876 88.1254C99.5773 87.9757 99.5354 87.7802 99.3889 87.6885L97.018 86.1733C96.8745 86.0816 96.6801 86.1244 96.5904 86.2741C96.5008 86.4238 96.5426 86.6193 96.6891 86.7109L99.06 88.2262C99.1109 88.2567 99.1677 88.275 99.2245 88.275Z" fill="#767676"/>
<path d="M88.6619 57.2728C88.7217 57.3552 88.8144 57.398 88.9071 57.398C88.9728 57.398 89.0386 57.3766 89.0954 57.3338L98.1995 50.2074C98.337 50.1004 98.3609 49.9019 98.2563 49.7614C98.1516 49.6239 97.9573 49.5964 97.8198 49.7033L88.7157 56.8298C88.5842 56.9337 88.5572 57.1353 88.6619 57.2728Z" fill="#767676"/>
<path d="M84.1458 50.8465C84.0022 50.7518 83.8109 50.7946 83.7152 50.9412L79.957 56.919C79.8644 57.0656 79.9062 57.2611 80.0497 57.3588C80.1005 57.3924 80.1603 57.4077 80.2172 57.4077C80.3188 57.4077 80.4205 57.3558 80.4773 57.2611L84.2355 51.2833C84.3311 51.1367 84.2893 50.9412 84.1458 50.8465Z" fill="#767676"/>
<path d="M92.0065 39.3666L84.8487 49.3615C84.7471 49.502 84.777 49.7005 84.9175 49.8044C84.9713 49.8472 85.0371 49.8655 85.0999 49.8655C85.1956 49.8655 85.2913 49.8197 85.3511 49.7341L92.5088 39.7393C92.6104 39.5988 92.5805 39.4002 92.44 39.2964C92.3025 39.1955 92.1081 39.2261 92.0065 39.3666Z" fill="#767676"/>
<path d="M81.6239 35.2459C81.6658 35.0749 81.5671 34.9038 81.4027 34.858C81.2382 34.8152 81.0678 34.916 81.023 35.084C80.5416 36.9779 80.0333 38.8902 79.5161 40.7963C79.7104 40.8788 79.8988 40.9765 80.0812 41.0896C80.6074 39.1437 81.1276 37.1857 81.6239 35.2459Z" fill="#767676"/>
<path d="M75.1151 57.0227C75.0703 57.1907 75.1719 57.3648 75.3364 57.4107C75.3633 57.4168 75.3902 57.4198 75.4141 57.4198C75.5516 57.4198 75.6772 57.3251 75.7131 57.1816C75.9882 56.1033 76.2752 55.0189 76.5622 53.9346H75.9194C75.6473 54.967 75.3782 55.9964 75.1151 57.0227Z" fill="#767676"/>
<path d="M94.4905 45.7265L97.0229 42.9897C97.1395 42.8614 97.1365 42.6629 97.0109 42.5407C96.8854 42.4216 96.691 42.4277 96.5714 42.5529L94.039 45.2897C93.9224 45.418 93.9254 45.6165 94.051 45.7387C94.1108 45.7967 94.1885 45.8242 94.2633 45.8242C94.347 45.8273 94.4307 45.7937 94.4905 45.7265Z" fill="#767676"/>
<path d="M86.8013 37.1672C86.6429 37.1031 86.4605 37.1825 86.3977 37.3444C86.1107 38.0867 85.7729 38.7984 85.4141 39.5529C85.157 40.0966 84.8909 40.6587 84.6457 41.2299C84.577 41.3918 84.6487 41.5781 84.8072 41.6484C84.849 41.6667 84.8909 41.6759 84.9327 41.6759C85.0523 41.6759 85.1659 41.6056 85.2168 41.4865C85.4559 40.9275 85.719 40.3716 85.9732 39.834C86.32 39.1008 86.6788 38.3464 86.9747 37.5827C87.0375 37.4177 86.9598 37.2314 86.8013 37.1672Z" fill="#767676"/>
<path d="M96.0935 57.2212C96.1473 57.3311 96.2579 57.3953 96.3715 57.3953C96.4193 57.3953 96.4672 57.3831 96.512 57.3617L103.996 53.5192C104.148 53.4397 104.211 53.2504 104.133 53.0946C104.055 52.9388 103.87 52.8746 103.718 52.9541L96.234 56.7966C96.0755 56.876 96.0157 57.0654 96.0935 57.2212Z" fill="#767676"/>
<path d="M83.6738 57.3559C83.7335 57.4139 83.8083 57.4414 83.883 57.4414C83.9668 57.4414 84.0505 57.4078 84.1103 57.3406L91.9705 48.6562C92.0871 48.5279 92.0782 48.3263 91.9526 48.2072C91.827 48.0881 91.6297 48.0972 91.5131 48.2255L83.6528 56.9099C83.5392 57.0351 83.5482 57.2367 83.6738 57.3559Z" fill="#767676"/>
<path d="M77.5456 56.9891C77.4769 57.151 77.5486 57.3373 77.7071 57.4076C77.7489 57.4259 77.7908 57.4351 77.8327 57.4351C77.9523 57.4351 78.0659 57.3648 78.1167 57.2457C78.6609 55.9749 79.2379 54.7163 79.818 53.47C79.5519 53.6105 79.2678 53.7235 78.9748 53.803C78.4875 54.8538 78.0061 55.9169 77.5456 56.9891Z" fill="#767676"/>
<path d="M84.4816 43.1148C84.5444 42.9529 84.4666 42.7665 84.3082 42.7024C84.1497 42.6383 83.9673 42.7177 83.9045 42.8796C83.4022 44.1716 82.8461 45.4667 82.2661 46.7526V48.2554C83.0495 46.5571 83.8119 44.8375 84.4816 43.1148Z" fill="#767676"/>
<path d="M68.0567 33.7554C68.0387 33.5813 67.8863 33.4592 67.7129 33.4744C67.5424 33.4928 67.4198 33.6516 67.4378 33.8257C67.68 36.025 67.9042 38.2732 68.1225 40.4725H68.7473C68.5291 38.2549 68.3018 35.9792 68.0567 33.7554Z" fill="#767676"/>
<path d="M70.0278 57.1295C70.0518 57.2884 70.1833 57.3983 70.3358 57.3983C70.3507 57.3983 70.3657 57.3983 70.3836 57.3953C70.5541 57.3708 70.6707 57.2089 70.6437 57.0348C70.4943 56.0115 70.3537 54.9759 70.2192 53.9373H69.5913C69.7288 55.0064 69.8724 56.0726 70.0278 57.1295Z" fill="#767676"/>
<path d="M67.4514 57.0409C67.4932 57.1784 67.6158 57.2639 67.7474 57.2639C67.7773 57.2639 67.8072 57.2608 67.8401 57.2486C68.0045 57.1967 68.0972 57.0195 68.0464 56.8515L67.1674 53.9346H66.5186L67.4514 57.0409Z" fill="#767676"/>
<path d="M62.463 39.7272C62.4929 39.7272 62.5228 39.7241 62.5557 39.7119C62.7201 39.66 62.8128 39.4828 62.762 39.3148L61.3867 34.7512C61.3359 34.5832 61.1655 34.4916 60.998 34.5405C60.8336 34.5924 60.7409 34.7695 60.7918 34.9375L62.167 39.5011C62.2089 39.6386 62.3315 39.7272 62.463 39.7272Z" fill="#767676"/>
<path d="M64.0289 57.2333C64.0857 57.3372 64.1904 57.3952 64.301 57.3952C64.3518 57.3952 64.4026 57.383 64.4535 57.3555C64.603 57.27 64.6568 57.0775 64.5731 56.9248C64.0259 55.9198 63.4818 54.9239 62.9376 53.9373H62.2261C62.821 55.0247 63.422 56.1214 64.0289 57.2333Z" fill="#767676"/>
<path d="M57.6488 44.4621C56.2884 42.0641 54.955 39.7425 53.6514 37.5064C53.5647 37.3567 53.3734 37.3078 53.2269 37.3964C53.0804 37.485 53.0295 37.6805 53.1192 37.8302C54.5723 40.3229 56.0642 42.9286 57.589 45.626V45.2258C57.589 44.9662 57.6129 44.7126 57.6488 44.4621Z" fill="#767676"/>
<path d="M48.7123 50.2168C48.6017 50.3513 48.6167 50.5498 48.7452 50.6628L56.3722 57.3435C56.432 57.3954 56.5038 57.4198 56.5755 57.4198C56.6622 57.4198 56.7489 57.3832 56.8117 57.3098C56.9223 57.1754 56.9074 56.9769 56.7788 56.8639L49.1518 50.1833C49.0203 50.0672 48.8229 50.0824 48.7123 50.2168Z" fill="#767676"/>
<path d="M43.0631 44.4222C42.9375 44.3031 42.7402 44.3092 42.6236 44.4375C42.5069 44.5658 42.5129 44.7674 42.6385 44.8866L46.597 48.6837C46.6568 48.7417 46.7345 48.7692 46.8093 48.7692C46.893 48.7692 46.9737 48.7356 47.0365 48.6684C47.1531 48.5401 47.1472 48.3385 47.0216 48.2193L43.0631 44.4222Z" fill="#767676"/>
<path d="M37.1999 54.7561C37.0414 54.6859 36.859 54.7592 36.7902 54.9211C36.7215 55.083 36.7932 55.2694 36.9517 55.3396L41.6697 57.4321C41.7086 57.4504 41.7504 57.4596 41.7923 57.4596C41.9119 57.4596 42.0255 57.3894 42.0763 57.2672C42.1451 57.1053 42.0733 56.9189 41.9149 56.8487L37.1999 54.7561Z" fill="#767676"/>
<path d="M72.6574 57.0777C72.6335 57.2518 72.7501 57.4106 72.9205 57.4351C72.9354 57.4381 72.9504 57.4381 72.9653 57.4381C73.1178 57.4381 73.2494 57.3251 73.2733 57.1663C73.4228 56.0911 73.5394 55.0128 73.641 53.9346H73.0162C72.9175 54.9853 72.8009 56.0361 72.6574 57.0777Z" fill="#767676"/>
<path d="M75.1561 33.441C74.9917 33.4288 74.8332 33.554 74.8182 33.7281L74.4236 38.0469C74.4086 38.221 74.5342 38.3767 74.7046 38.392C74.7136 38.392 74.7256 38.392 74.7345 38.392C74.893 38.392 75.0275 38.2698 75.0425 38.1049L75.4372 33.7861C75.4521 33.612 75.3265 33.4563 75.1561 33.441Z" fill="#767676"/>
<path d="M48.2457 40.4237L47.9437 40.0388C47.8361 39.9013 47.6417 39.8799 47.5072 39.9899C47.3726 40.0999 47.3517 40.2984 47.4593 40.4359L47.7613 40.8208C48.2546 41.447 48.7659 42.0946 49.2742 42.7116C49.3369 42.7849 49.4236 42.8246 49.5133 42.8246C49.5851 42.8246 49.6539 42.8002 49.7137 42.7513C49.8452 42.6383 49.8632 42.4397 49.7525 42.3053C49.2473 41.6913 48.739 41.0468 48.2457 40.4237Z" fill="#767676"/>
<path d="M60.9326 57.3185C60.9954 57.3918 61.0821 57.4315 61.1718 57.4315C61.2436 57.4315 61.3123 57.4071 61.3721 57.3582C61.5037 57.2452 61.5216 57.0467 61.411 56.9123C58.9533 53.9218 56.4748 50.7817 54.0769 47.7454L52.6507 45.9401C52.5431 45.8027 52.3488 45.7813 52.2142 45.8913C52.0797 46.0012 52.0587 46.1998 52.1664 46.3372L53.5925 48.1425C55.9904 51.1788 58.469 54.322 60.9326 57.3185Z" fill="#767676"/>
<path d="M44.152 52.786C44.0623 52.9356 44.1041 53.1311 44.2506 53.2227L50.7924 57.3979C50.8432 57.4315 50.9 57.4468 50.9568 57.4468C51.0615 57.4468 51.1601 57.3948 51.2199 57.2971C51.3096 57.1474 51.2678 56.952 51.1213 56.8603L44.5825 52.6852C44.436 52.5936 44.2447 52.6363 44.152 52.786Z" fill="#767676"/>
<path d="M11.4013 66.5041C11.4611 66.2567 11.7362 65.881 12.3102 65.5908C12.959 65.1937 13.8709 64.9737 14.8725 64.9737C15.1176 64.9737 15.3658 64.986 15.608 65.0134C17.4557 65.1815 18.7802 66.0551 19.2197 66.7821L19.2705 66.8554L23.4652 64.036L23.4443 64.0054C22.0152 61.7541 19.2615 60.2268 16.0834 59.9183C15.6977 59.8877 15.297 59.8572 14.9024 59.8572C13.0906 59.8572 11.3684 60.2818 9.92133 61.0821C7.89123 62.194 6.61159 64.0146 6.40529 66.0734C6.0196 70.2277 9.34728 73.3863 14.6841 73.9361C16.2089 74.0888 17.3122 74.4523 17.9819 75.0327C18.4663 75.5276 18.4663 75.9949 18.4393 76.1935C18.4154 76.5081 18.0537 76.9114 17.5424 77.1893C16.8637 77.562 15.9578 77.7697 14.9951 77.7697C14.7499 77.7697 14.4988 77.7575 14.2566 77.73C12.4388 77.5651 11.0904 76.6945 10.603 75.943L10.5761 75.8972L6.3754 78.6739L6.42025 78.738C7.84939 80.9893 10.603 82.5167 13.7842 82.8252C14.1519 82.8557 14.5466 82.8863 14.9622 82.8863C16.7381 82.8863 18.4962 82.4617 19.9074 81.695C21.9674 80.5342 23.25 78.7167 23.4264 76.7006C23.8121 72.4424 20.5741 69.3572 15.1775 68.8379C13.8171 68.6851 11.2757 68.0162 11.3953 66.553L11.3983 66.5285L11.4013 66.5041ZM10.6778 69.3602C11.6823 70.1941 13.1743 70.7287 14.9921 70.9089C18.3048 71.2388 21.7312 72.8731 21.3993 76.4745C21.2707 77.7972 20.4067 78.9916 18.9626 79.8347C17.8563 80.4486 16.4362 80.7847 14.9652 80.7847C14.6243 80.7847 14.3014 80.7847 13.9785 80.7511C12.4388 80.5861 10.9977 80.0882 9.92432 79.3459L9.55658 79.0924L10.3668 78.5395L10.5313 78.6464C11.482 79.2665 12.7407 79.6728 14.0742 79.798C14.3493 79.8285 14.6423 79.8591 14.9682 79.8591C16.2538 79.8591 17.5215 79.5567 18.5201 79.016C19.707 78.3195 20.3917 77.4062 20.4993 76.3859C20.586 75.3687 20.1794 74.321 19.3901 73.5146C18.4334 72.5982 16.9564 72.0453 14.8785 71.8315C12.4746 71.6085 10.4745 70.7134 9.38616 69.3786C8.6686 68.4958 8.36064 67.4511 8.46828 66.275C8.56694 64.9493 9.45492 63.7335 10.902 62.9424C12.0082 62.2978 13.3925 61.9557 14.9084 61.9557C15.2492 61.9557 15.5721 61.9557 15.895 61.9893C17.4019 62.1543 18.84 62.6522 19.9462 63.3945L20.3439 63.6602L19.4708 64.1979L19.3154 64.097C18.3556 63.4861 17.1089 63.0646 15.8023 62.9118C15.5093 62.8813 15.2163 62.8813 14.9054 62.8813C13.5031 62.8813 12.2773 63.1837 11.3385 63.761C10.1545 64.3811 9.45493 65.3006 9.37121 66.3544C9.25461 67.5183 9.70906 68.5568 10.6778 69.3602Z" fill="#767676"/>
<path d="M31.6131 82.8833H36.7527V65.1388H42.3049V59.8542H26.0879V65.1388H31.6102V82.8833H31.6131ZM28.1778 62.9761V62.0506H40.1911V62.9761H34.6389V80.7206H33.733V62.9761H28.1778Z" fill="#767676"/>
<path d="M48.5044 75.9796H57.3573L53.1147 64.0359L48.5044 75.9796ZM50.4926 74.5745L53.0789 67.952L55.402 74.5745H50.4926Z" fill="#767676"/>
<path d="M54.8277 59.8542H51.4791L42.6143 82.8833H48.1125L49.5925 79.0681H56.2388L57.5663 82.8833H63.0377L54.8277 59.8542ZM57.6979 76.9054H48.1454L46.6655 80.7206H45.6818L52.9202 61.9864H53.3626L60.027 80.7206H59.0523L57.6979 76.9054Z" fill="#767676"/>
<path d="M73.5007 82.8833V65.1388H79.0528V59.8542H62.8359V65.1388H68.3581V82.8833H73.5007ZM64.9228 62.9761V62.0506H76.936V62.9761H71.3839V80.7206H70.4779V62.9761H64.9228Z" fill="#767676"/>
<path d="M81.9937 82.8833H87.1033V59.8542H81.9937V82.8833ZM84.0806 61.9864H85.0164V80.7542H84.0806V61.9864Z" fill="#767676"/>
<path d="M112.498 71.337C112.498 64.9865 107.427 59.8242 101.196 59.8242C94.9801 59.8242 89.9243 64.9895 89.9243 71.337C89.9243 77.7028 94.9801 82.8834 101.196 82.8834C107.427 82.8834 112.498 77.7058 112.498 71.337ZM92.0112 71.337C92.0112 66.1625 96.1312 61.9533 101.196 61.9533C106.276 61.9533 110.411 66.1625 110.411 71.337C110.411 76.5298 106.276 80.7513 101.196 80.7513C96.1312 80.7513 92.0112 76.5298 92.0112 71.337Z" fill="#767676"/>
<path d="M109.533 71.3367C109.533 66.657 105.792 62.8479 101.194 62.8479C96.6136 62.8479 92.8853 66.657 92.8853 71.3367C92.8853 76.0347 96.6136 79.856 101.194 79.856C105.792 79.859 109.533 76.0347 109.533 71.3367ZM101.194 78.4814C97.3551 78.4814 94.2307 75.2771 94.2307 71.3367C94.2307 67.4146 97.3551 64.2225 101.194 64.2225C105.051 64.2225 108.187 67.4146 108.187 71.3367C108.187 75.2771 105.051 78.4814 101.194 78.4814Z" fill="#767676"/>
<path d="M129.475 59.8242V72.3786L120.234 59.8242H115.961V82.8834H121.101V69.7639L130.803 82.8834H134.645V59.8242H129.475ZM132.501 80.6902H131.837L119.02 63.3309V80.6902H118.084V61.9869H119.181L131.598 78.8116V61.9869H132.504V80.6902H132.501Z" fill="#767676"/>
<path d="M33.8606 89.4174L33.6543 88.9775C33.6125 88.8889 33.5138 88.8522 33.4271 88.895L31.9621 89.6159L31.6212 88.8919L33.0863 88.171C33.173 88.1283 33.2059 88.0275 33.167 87.9389L32.9607 87.499C32.9188 87.4104 32.8202 87.3738 32.7334 87.4165L28.733 89.3868C28.6462 89.4296 28.6104 89.5304 28.6522 89.619L28.8585 90.0588C28.9004 90.1474 28.9991 90.1841 29.0858 90.1413L30.9246 89.2371L31.2654 89.9611L29.4266 90.8653C29.3399 90.908 29.307 91.0088 29.3459 91.0974L29.5522 91.5373C29.5911 91.6198 29.6927 91.6625 29.7794 91.6198L33.7799 89.6495C33.8666 89.6067 33.8965 89.4968 33.8606 89.4174Z" fill="#767676"/>
<path d="M34.6551 90.9017L34.4219 90.474C34.3741 90.3884 34.2664 90.361 34.1827 90.4098L30.3108 92.6154C30.2271 92.6643 30.1972 92.7682 30.245 92.8537L30.4782 93.2814C30.526 93.3669 30.6277 93.3975 30.7114 93.3486L34.5833 91.143C34.6671 91.0941 34.7 90.9872 34.6551 90.9017Z" fill="#767676"/>
<path d="M34.7964 94.9827C34.8772 94.9308 34.9011 94.8239 34.8473 94.7414L34.339 93.9289C34.2882 93.8464 34.1835 93.8219 34.1028 93.8769L33.747 94.1091C33.6663 94.161 33.6364 94.271 33.6902 94.3535L33.8487 94.607L32.7992 95.2912C32.7185 95.3432 32.6109 95.3157 32.5601 95.2332L32.285 94.7933C32.2372 94.717 32.2551 94.6039 32.3358 94.552L34.7546 92.9758C34.8293 92.9269 34.9429 92.9514 34.9908 93.0277L35.2658 93.4676C35.3167 93.5501 35.2927 93.6661 35.218 93.715L34.9878 93.8647C34.9071 93.9166 34.8831 94.0235 34.9369 94.106L35.1941 94.5184C35.2449 94.6009 35.3495 94.6253 35.4303 94.5703L35.7233 94.3779C36.1329 94.1121 36.2465 93.5562 35.9894 93.1438L35.5857 92.4962C35.3256 92.0777 34.7875 91.9586 34.3779 92.2244L31.8216 93.8922C31.418 94.1549 31.2984 94.7139 31.5555 95.1263L31.9591 95.7739C32.2162 96.1862 32.7634 96.3084 33.167 96.0457L34.7964 94.9827Z" fill="#767676"/>
<path d="M38.2312 96.345L37.9442 95.9541C37.8874 95.8747 37.7827 95.8624 37.705 95.9205L36.4074 96.9223L35.935 96.2809L37.2326 95.2791C37.3074 95.221 37.3223 95.1141 37.2655 95.0347L36.9785 94.6437C36.9217 94.5643 36.817 94.5521 36.7393 94.6102L33.1934 97.3438C33.1186 97.4019 33.1037 97.5088 33.1605 97.5882L33.4475 97.9791C33.5043 98.0586 33.6089 98.0738 33.6867 98.0127L35.3161 96.7574L35.7885 97.3988L34.1591 98.6572C34.0813 98.7153 34.0694 98.8252 34.1262 98.9016L34.4132 99.2925C34.467 99.3658 34.5747 99.3872 34.6524 99.3262L38.1983 96.5925C38.2761 96.5314 38.285 96.4184 38.2312 96.345Z" fill="#767676"/>
<path d="M39.4006 102.72L41.0898 101.043C41.4725 100.665 41.4815 100.041 41.1107 99.6505L40.7101 99.2289C40.3394 98.8379 39.7294 98.8287 39.3467 99.2075L37.2927 101.245C36.916 101.621 36.907 102.241 37.2778 102.632L38.2196 103.622C38.2854 103.692 38.396 103.698 38.4647 103.631L38.7847 103.316C38.8534 103.249 38.8504 103.136 38.7936 103.075L38.6023 102.873C38.8684 102.983 39.1853 102.934 39.4006 102.72ZM38.3422 102.601L37.8668 102.1C37.801 102.03 37.801 101.911 37.8638 101.85L39.9178 99.8124C39.9866 99.7452 40.1032 99.7452 40.1689 99.8154L40.5217 100.185C40.5875 100.255 40.5875 100.374 40.5188 100.442L38.3422 102.601Z" fill="#767676"/>
<path d="M44.1062 102.488L43.7475 102.164C43.6757 102.1 43.5651 102.112 43.5023 102.185L41.0955 104.987C41.0327 105.06 40.9221 105.063 40.8503 104.999L40.4706 104.657C40.3989 104.593 40.3869 104.48 40.4497 104.406L42.8565 101.608C42.9193 101.535 42.9163 101.422 42.8445 101.358L42.4858 101.034C42.414 100.97 42.3034 100.982 42.2406 101.055L39.78 103.918C39.4631 104.284 39.4989 104.855 39.8607 105.179L40.4258 105.686C40.7846 106.01 41.3437 105.97 41.6606 105.604L44.1212 102.741C44.178 102.665 44.178 102.552 44.1062 102.488Z" fill="#767676"/>
<path d="M46.1817 104.131L45.3625 103.502C45.2907 103.447 45.195 103.453 45.1293 103.517L42.3936 106.236C42.3637 106.267 42.3517 106.282 42.3338 106.303L41.972 106.795C41.9152 106.874 41.9301 106.981 42.0049 107.039L42.3876 107.333C42.4653 107.391 42.57 107.375 42.6268 107.299L43.0005 106.792L43.733 107.354L43.3593 107.861C43.3025 107.941 43.3174 108.048 43.3892 108.103L43.7779 108.399C43.8556 108.457 43.9603 108.442 44.0171 108.365L44.3788 107.873C44.3968 107.852 44.4087 107.834 44.4267 107.797L46.2265 104.36C46.2624 104.29 46.2534 104.186 46.1817 104.131ZM44.1247 106.664L43.5447 106.218L45.2817 104.47L44.1247 106.664Z" fill="#767676"/>
<path d="M46.6563 109.398L45.855 108.863L47.9449 105.579C47.9957 105.497 47.9748 105.39 47.8941 105.338L47.4934 105.072C47.4127 105.02 47.3081 105.042 47.2572 105.124L44.8355 108.93C44.7817 109.013 44.8056 109.12 44.8863 109.171L46.2317 110.066C46.3125 110.118 46.4171 110.097 46.4679 110.015L46.7071 109.639C46.758 109.556 46.737 109.449 46.6563 109.398Z" fill="#767676"/>
<path d="M50.1384 106.749L49.7258 106.505C49.6421 106.456 49.5375 106.489 49.4896 106.575L47.2682 110.494C47.2204 110.579 47.2473 110.683 47.331 110.732L47.7436 110.977C47.8273 111.025 47.929 110.998 47.9768 110.912L50.1982 106.993C50.243 106.908 50.2191 106.798 50.1384 106.749Z" fill="#767676"/>
<path d="M52.6744 108.833L52.8777 108.424C52.9195 108.335 52.8807 108.231 52.8029 108.188L51.03 107.269C50.9462 107.223 50.8446 107.26 50.7997 107.345L50.5964 107.755C50.5546 107.843 50.5875 107.944 50.6712 107.99L51.1884 108.259L49.4603 111.738C49.4154 111.823 49.4573 111.93 49.535 111.973L49.9626 112.193C50.0493 112.236 50.148 112.202 50.1928 112.116L51.9209 108.637L52.4442 108.909C52.5249 108.949 52.6325 108.918 52.6744 108.833Z" fill="#767676"/>
<path d="M55.4983 110.323L55.7614 109.685C55.7973 109.596 55.7584 109.495 55.6687 109.456L55.2292 109.266C55.1395 109.23 55.0439 109.269 55.005 109.361L54.8047 109.85C54.7837 109.902 54.7508 109.947 54.712 109.984L53.9017 110.711L53.8419 109.611C53.8359 109.556 53.8449 109.498 53.8658 109.446L54.0662 108.958C54.102 108.866 54.0632 108.768 53.9735 108.729L53.531 108.539C53.4413 108.503 53.3456 108.542 53.3067 108.631L53.0436 109.269C53.0137 109.34 53.0048 109.419 53.0018 109.495L53.1184 111.521L52.4337 113.182C52.3978 113.274 52.4367 113.372 52.5264 113.412L52.9659 113.601C53.0556 113.638 53.1513 113.598 53.1901 113.506L53.8718 111.844L55.3638 110.51C55.4266 110.458 55.4684 110.393 55.4983 110.323Z" fill="#767676"/>
<path d="M55.6917 113.793L55.2611 113.637C55.1714 113.604 55.0787 113.647 55.0458 113.738L54.8904 114.184C54.8575 114.276 54.9053 114.368 54.998 114.401L55.1206 114.447L54.989 114.575C54.9591 114.603 54.9322 114.636 54.9173 114.676L54.8754 114.801C54.8575 114.853 54.8874 114.917 54.9322 114.933L55.1505 115.012C55.1953 115.027 55.2551 115 55.2761 114.945L55.288 114.911C55.3 114.878 55.3299 114.853 55.3418 114.841L55.5392 114.646C55.5631 114.618 55.581 114.587 55.593 114.554L55.7843 114.001C55.8112 113.909 55.7694 113.821 55.6917 113.793Z" fill="#767676"/>
<path d="M60.4644 115.214L59.5376 114.978L60.4644 111.179C60.4883 111.084 60.4315 110.989 60.3388 110.968L59.8754 110.849C59.7827 110.824 59.693 110.882 59.6691 110.977L58.5958 115.382C58.5719 115.476 58.6287 115.568 58.7214 115.592L60.279 115.99C60.3717 116.014 60.4614 115.956 60.4853 115.861L60.5899 115.427C60.6109 115.33 60.557 115.238 60.4644 115.214Z" fill="#767676"/>
<path d="M63.829 111.716L63.0906 111.585C62.6122 111.499 62.1607 111.832 62.077 112.318L61.5598 115.363C61.4761 115.852 61.793 116.31 62.2714 116.396L63.0098 116.527C63.4822 116.61 63.9367 116.289 64.0204 115.8L64.5376 112.755C64.6213 112.266 64.2984 111.799 63.829 111.716ZM63.2281 115.568C63.2132 115.666 63.1175 115.733 63.0218 115.715L62.5225 115.626C62.4268 115.611 62.3611 115.513 62.379 115.415L62.8693 112.529C62.8873 112.431 62.9799 112.379 63.0726 112.394L63.5719 112.483C63.6676 112.498 63.7364 112.584 63.7184 112.678L63.2281 115.568Z" fill="#767676"/>
<path d="M68.7913 112.266L68.1934 112.214C68.1306 112.208 68.0797 112.254 68.0768 112.315L68.0289 112.92C68.0259 112.968 68.0229 112.996 68.011 113.051L67.6701 114.801L67.4728 112.251C67.4638 112.193 67.419 112.147 67.3652 112.144L66.8479 112.101C66.7941 112.095 66.7433 112.134 66.7313 112.189L66.1274 114.673L66.0646 112.889C66.0616 112.834 66.0646 112.807 66.0676 112.758L66.1154 112.153C66.1214 112.092 66.0765 112.037 66.0167 112.034L65.4188 111.982C65.359 111.976 65.3052 112.021 65.3022 112.083L65.2484 112.752C65.2454 112.785 65.2424 112.828 65.2454 112.892L65.4696 116.735C65.4756 116.827 65.5384 116.894 65.6281 116.903L66.1603 116.949C66.241 116.955 66.3217 116.9 66.3367 116.808L66.9645 113.955L67.126 116.876C67.132 116.967 67.1947 117.034 67.2844 117.044L67.8077 117.089C67.8974 117.096 67.9691 117.041 67.9901 116.952L68.8272 113.198C68.8392 113.136 68.8422 113.094 68.8451 113.06L68.899 112.391C68.896 112.324 68.8511 112.272 68.7913 112.266Z" fill="#767676"/>
<path d="M72.7162 112.208L71.5412 112.266C71.4455 112.272 71.3738 112.351 71.3797 112.449L71.598 116.982C71.604 117.08 71.6817 117.153 71.7774 117.147L72.2558 117.123C72.3514 117.117 72.4232 117.037 72.4172 116.939L72.3186 114.911L72.8448 114.884C73.4397 114.853 73.9062 114.328 73.8763 113.714L73.8553 113.268C73.8254 112.654 73.3082 112.177 72.7162 112.208ZM72.8029 114.041L72.2767 114.068L72.2259 113.036L72.7521 113.008C72.9016 113.002 73.0242 113.121 73.0301 113.274L73.0541 113.754C73.063 113.903 72.9524 114.032 72.8029 114.041Z" fill="#767676"/>
<path d="M77.2757 115.537L76.5223 114.45C76.896 114.233 77.1322 113.796 77.0724 113.326L77.0186 112.889C76.9438 112.278 76.4027 111.841 75.8047 111.918L74.6327 112.068C74.543 112.08 74.4713 112.165 74.4832 112.263L75.0304 116.765C75.0423 116.863 75.132 116.927 75.2217 116.918L75.6971 116.857C75.7928 116.844 75.8585 116.759 75.8466 116.661L75.5895 114.563L76.4834 115.843C76.5283 115.922 76.5492 115.995 76.5582 116.072L76.618 116.557C76.6299 116.655 76.7196 116.719 76.8153 116.707L77.2907 116.646C77.3863 116.634 77.4431 116.548 77.4312 116.454L77.3475 115.76C77.3415 115.684 77.3176 115.601 77.2757 115.537ZM76.032 113.747L75.5028 113.815L75.3772 112.782L75.9064 112.715C76.0499 112.697 76.1844 112.797 76.2024 112.95L76.2592 113.43C76.2801 113.589 76.1755 113.729 76.032 113.747Z" fill="#767676"/>
<path d="M78.221 111.527L77.7515 111.615C77.6588 111.634 77.599 111.728 77.6169 111.826L78.4183 116.283C78.4362 116.381 78.523 116.442 78.6186 116.424L79.0881 116.335C79.1808 116.317 79.2436 116.228 79.2256 116.133L78.4243 111.677C78.4063 111.579 78.3166 111.509 78.221 111.527Z" fill="#767676"/>
<path d="M82.2313 113.472C82.2074 113.378 82.1147 113.314 82.022 113.338L81.5586 113.454C81.4659 113.479 81.4121 113.576 81.436 113.671L81.6902 114.737C81.7141 114.832 81.6513 114.926 81.5646 114.948L81.0653 115.073C80.9726 115.098 80.8739 115.043 80.853 114.948L80.1713 112.101C80.1474 112.006 80.2102 111.912 80.3029 111.887L80.8022 111.762C80.8889 111.74 80.9845 111.795 81.0085 111.89L81.1699 112.562C81.1938 112.657 81.2865 112.721 81.3792 112.697L81.8426 112.581C81.9353 112.556 81.9891 112.458 81.9652 112.364L81.7858 111.618C81.6692 111.136 81.1998 110.845 80.7274 110.962L79.9979 111.145C79.5255 111.264 79.2415 111.744 79.3551 112.226L80.0756 115.238C80.1892 115.711 80.6676 116.011 81.134 115.895L81.8636 115.711C82.336 115.592 82.62 115.107 82.5064 114.63L82.2313 113.472Z" fill="#767676"/>
<path d="M85.4211 113.983C85.3912 113.891 85.2985 113.839 85.2058 113.87L84.3029 114.166L83.8634 112.764L84.4344 112.574C84.5241 112.544 84.5749 112.449 84.545 112.355L84.4165 111.942C84.3866 111.851 84.2939 111.799 84.2012 111.829L83.6302 112.015L83.3192 111.026L84.2221 110.729C84.3118 110.699 84.3627 110.604 84.3328 110.51L84.1982 110.085C84.1683 109.993 84.0756 109.941 83.983 109.972L82.4552 110.473C82.3655 110.503 82.3146 110.598 82.3445 110.693L83.7019 115.012C83.7318 115.104 83.8245 115.156 83.9172 115.125L85.445 114.624C85.5347 114.594 85.5855 114.499 85.5556 114.404L85.4211 113.983Z" fill="#767676"/>
<path d="M87.2799 113.989C87.2799 113.952 87.274 113.915 87.262 113.885L87.0587 113.338C87.0258 113.246 86.9361 113.207 86.8613 113.237L86.4337 113.402C86.344 113.436 86.2992 113.53 86.3321 113.622L86.4965 114.065C86.5294 114.157 86.6251 114.193 86.7148 114.16L86.8374 114.114L86.8195 114.3C86.8135 114.34 86.8135 114.383 86.8284 114.422L86.8733 114.547C86.8912 114.599 86.954 114.627 86.9989 114.612L87.2172 114.526C87.262 114.508 87.2889 114.447 87.271 114.395L87.259 114.361C87.247 114.328 87.253 114.288 87.256 114.273L87.2799 113.989Z" fill="#767676"/>
<path d="M91.6003 109.779C91.4717 109.517 91.2564 109.33 91.0023 109.236C91.0352 109.022 90.9993 108.808 90.8976 108.603L90.6973 108.197C90.4282 107.647 89.7735 107.421 89.2353 107.699L88.1739 108.246C88.0872 108.289 88.0543 108.393 88.0991 108.481L90.0964 112.535C90.1382 112.623 90.2399 112.657 90.3266 112.611L91.4866 112.015C92.0248 111.74 92.2371 111.068 91.965 110.519L91.6003 109.779ZM89.1067 108.661L89.5881 108.414C89.7166 108.347 89.8811 108.405 89.9498 108.539L90.1621 108.97C90.2279 109.101 90.1711 109.269 90.0425 109.336L89.5612 109.584L89.1067 108.661ZM91.1279 111.288L90.5478 111.588L89.908 110.289L90.488 109.99C90.6166 109.923 90.781 109.981 90.8498 110.118L91.2385 110.91C91.3103 111.053 91.2564 111.221 91.1279 111.288Z" fill="#767676"/>
<path d="M94.7616 109.407C94.7137 109.324 94.6091 109.297 94.5284 109.346L93.7151 109.844L92.9737 108.579L93.4909 108.264C93.5716 108.215 93.5985 108.108 93.5507 108.026L93.3325 107.653C93.2816 107.571 93.18 107.543 93.0993 107.592L92.582 107.907L92.0588 107.015L92.875 106.517C92.9558 106.468 92.9827 106.361 92.9348 106.279L92.7106 105.897C92.6628 105.814 92.5581 105.787 92.4774 105.836L91.0991 106.679C91.0184 106.728 90.9915 106.835 91.0393 106.917L93.3205 110.809C93.3683 110.891 93.473 110.919 93.5537 110.87L94.932 110.027C95.0127 109.978 95.0396 109.871 94.9918 109.789L94.7616 109.407Z" fill="#767676"/>
<path d="M96.868 106.3C96.5181 105.79 95.8424 105.671 95.3461 106.025L95.089 106.208C94.9634 106.291 94.796 106.266 94.7093 106.141L94.4701 105.793C94.3834 105.667 94.4192 105.496 94.5418 105.411L94.7989 105.228C94.9215 105.139 95.089 105.163 95.1757 105.292L95.2594 105.411C95.3132 105.49 95.4179 105.509 95.4986 105.454L95.8903 105.173C95.968 105.118 95.9859 105.011 95.9321 104.928L95.8664 104.83C95.5225 104.326 94.8408 104.201 94.3445 104.556L94.0873 104.739C93.594 105.09 93.4744 105.793 93.8182 106.294L94.0425 106.621C94.3863 107.125 95.065 107.235 95.5614 106.889L95.8185 106.706C95.9411 106.618 96.1085 106.645 96.1952 106.77L96.7035 107.513C96.7902 107.638 96.7603 107.812 96.6378 107.901L96.3806 108.084C96.258 108.172 96.0876 108.142 96.0009 108.017L95.66 107.519C95.6062 107.439 95.5016 107.421 95.4209 107.476L95.0292 107.757C94.9514 107.812 94.9335 107.919 94.9873 108.001L95.3102 108.469C95.6541 108.973 96.3417 109.095 96.8321 108.744L97.0892 108.56C97.5826 108.209 97.7022 107.506 97.3583 107.005L96.868 106.3Z" fill="#767676"/>
<path d="M97.4002 103.178L97.8546 102.8C97.9234 102.742 97.9383 102.629 97.8785 102.555L97.5945 102.198C97.5347 102.121 97.4241 102.115 97.3553 102.173L95.8156 103.456C95.7409 103.517 95.7319 103.627 95.7917 103.701L96.0757 104.058C96.1355 104.135 96.2431 104.144 96.3149 104.083L96.7634 103.707L99.1761 106.728C99.2359 106.804 99.3465 106.81 99.4153 106.752L99.786 106.444C99.8607 106.383 99.8697 106.273 99.8099 106.2L97.4002 103.178Z" fill="#767676"/>
<path d="M102.98 100.511C102.911 100.444 102.8 100.441 102.735 100.511L102.403 100.863C102.337 100.933 102.343 101.046 102.412 101.113L103.183 101.877C103.252 101.944 103.249 102.06 103.186 102.124L102.83 102.5C102.765 102.57 102.654 102.576 102.585 102.509L100.522 100.469C100.454 100.401 100.457 100.285 100.522 100.218L100.878 99.8424C100.941 99.7782 101.051 99.7691 101.12 99.8394L101.608 100.319C101.676 100.386 101.787 100.389 101.853 100.319L102.185 99.9676C102.25 99.8974 102.244 99.7844 102.176 99.7172L101.634 99.1826C101.285 98.8374 100.735 98.8466 100.397 99.204L99.8735 99.7569C99.5357 100.114 99.5446 100.676 99.8944 101.022L102.074 103.178C102.418 103.517 102.977 103.508 103.312 103.157L103.835 102.604C104.173 102.246 104.158 101.681 103.814 101.339L102.98 100.511Z" fill="#767676"/>
<path d="M103.164 96.2108C103.089 96.1497 102.982 96.1649 102.925 96.2352L102.62 96.6109C102.56 96.6873 102.569 96.7942 102.644 96.8584L103.897 97.9183L103.394 98.5354L102.142 97.4754C102.067 97.4143 101.962 97.4235 101.899 97.4998L101.594 97.8756C101.535 97.9519 101.544 98.0589 101.618 98.12L105.039 101.013C105.114 101.074 105.218 101.065 105.281 100.988L105.586 100.613C105.646 100.536 105.637 100.429 105.562 100.368L103.989 99.0364L104.492 98.4193L106.064 99.7511C106.139 99.8122 106.244 99.8031 106.304 99.7267L106.608 99.351C106.665 99.2807 106.659 99.1677 106.585 99.1066L103.164 96.2108Z" fill="#767676"/>
<path d="M108.149 95.6487L105.656 93.8954C105.255 93.6144 104.705 93.7182 104.433 94.1214L104.005 94.7537C103.73 95.1631 103.835 95.719 104.235 96L106.729 97.7534C107.13 98.0344 107.671 97.9336 107.946 97.5243L108.373 96.892C108.645 96.4888 108.55 95.9298 108.149 95.6487ZM107.656 96.5376L107.369 96.9622C107.315 97.0416 107.201 97.063 107.121 97.008L104.756 95.3463C104.678 95.2914 104.666 95.1814 104.72 95.102L105.007 94.6774C105.061 94.598 105.165 94.5674 105.243 94.6224L107.608 96.2841C107.692 96.3421 107.713 96.4582 107.656 96.5376Z" fill="#767676"/>
<path d="M109.752 94.4084L105.982 92.0225C105.901 91.9706 105.791 91.992 105.74 92.0745L105.489 92.49C105.438 92.5724 105.468 92.6824 105.549 92.7343L109.319 95.1202C109.4 95.1721 109.504 95.1477 109.555 95.0622L109.806 94.6467C109.86 94.5642 109.836 94.4573 109.752 94.4084Z" fill="#767676"/>
<path d="M110.871 90.905L109.848 90.3399C109.764 90.294 109.657 90.3215 109.612 90.4071L109.385 90.8378C109.34 90.9233 109.376 91.0302 109.459 91.0761L110.404 91.5984C110.488 91.6442 110.515 91.7542 110.473 91.8337L110.231 92.2949C110.186 92.3805 110.081 92.4171 109.995 92.3713L107.471 90.9753C107.388 90.9294 107.361 90.8195 107.405 90.7339L107.651 90.2727C107.692 90.1932 107.797 90.1566 107.881 90.2024L108.476 90.5323C108.56 90.5781 108.667 90.5506 108.712 90.4651L108.939 90.0344C108.984 89.9488 108.948 89.8419 108.865 89.7931L108.204 89.4265C107.776 89.1913 107.25 89.3501 107.02 89.7869L106.661 90.4621C106.431 90.8989 106.586 91.4365 107.014 91.6717L109.684 93.1472C110.105 93.3794 110.64 93.2175 110.868 92.7867L111.226 92.1116C111.457 91.6778 111.292 91.1372 110.871 90.905Z" fill="#767676"/>
<path d="M112.754 88.4552L112.356 88.2719C112.269 88.2322 112.171 88.2688 112.129 88.3574L111.737 89.2402L110.424 88.6323L110.673 88.0733C110.711 87.9847 110.676 87.8839 110.589 87.8411L110.203 87.664C110.117 87.6243 110.018 87.6609 109.976 87.7495L109.728 88.3085L108.801 87.8809L109.193 86.998C109.232 86.9094 109.196 86.8086 109.106 86.7659L108.708 86.5826C108.622 86.5429 108.523 86.5795 108.481 86.6681L107.82 88.1619C107.781 88.2505 107.817 88.3513 107.904 88.3941L111.949 90.2636C112.036 90.3033 112.135 90.2666 112.177 90.175L112.837 88.6812C112.879 88.5957 112.84 88.4949 112.754 88.4552Z" fill="#767676"/>
<path d="M28.8522 49.8839L32.7987 51.9608C32.8824 52.0066 32.9841 51.973 33.0289 51.8845L33.2472 51.4508C33.292 51.3622 33.2592 51.2614 33.1724 51.2156L31.4055 50.287L31.6447 49.8106C31.9167 49.2699 31.7044 48.5949 31.1693 48.3139L30.7806 48.1093C30.2454 47.8283 29.5847 48.0451 29.3126 48.5858L28.7744 49.6517C28.7326 49.7372 28.7654 49.8411 28.8522 49.8839ZM30.0122 48.9492C30.081 48.8118 30.2424 48.766 30.377 48.8362L30.7955 49.0561C30.9241 49.1233 30.9779 49.2852 30.9121 49.4226L30.67 49.8991L29.77 49.4257L30.0122 48.9492Z" fill="#767676"/>
<path d="M30.6575 46.4413L34.4217 48.8454C34.5025 48.8973 34.6101 48.8668 34.6579 48.7904L34.9121 48.375C34.9629 48.2925 34.939 48.1856 34.8583 48.1336L33.1032 47.0126L34.637 47.1103C34.7237 47.1256 34.7955 47.1531 34.8583 47.1958L35.2649 47.4555C35.3456 47.5074 35.4532 47.4769 35.5041 47.3944L35.7582 46.9789C35.809 46.8965 35.7821 46.7957 35.7014 46.7437L35.1214 46.3741C35.0586 46.3344 34.9808 46.3008 34.9061 46.2947L33.6055 46.2061C33.6773 45.7754 33.4919 45.3111 33.1002 45.0606L32.7355 44.8284C32.2242 44.5016 31.5515 44.6574 31.2316 45.1767L30.6067 46.2C30.5558 46.2764 30.5768 46.3894 30.6575 46.4413ZM31.8953 45.6013C31.97 45.476 32.1345 45.4333 32.2631 45.5157L32.6637 45.7693C32.7953 45.8548 32.8371 46.0289 32.7594 46.1511L32.4783 46.6124L31.6142 46.0625L31.8953 45.6013Z" fill="#767676"/>
<path d="M36.3062 45.8673C36.3839 45.9254 36.4886 45.9101 36.5454 45.8307L37.4962 44.511C37.553 44.4316 37.538 44.3247 37.4603 44.2667L37.1075 44.0009C37.0297 43.9428 36.9251 43.9581 36.8683 44.0376L36.3062 44.8196L35.1461 43.9459L35.5019 43.451C35.5587 43.3716 35.5438 43.2647 35.466 43.2067L35.1252 42.9501C35.0475 42.892 34.9428 42.9073 34.886 42.9867L34.5302 43.4816L33.711 42.8645L34.2731 42.0825C34.3299 42.0031 34.315 41.8962 34.2372 41.8382L33.8844 41.5724C33.8067 41.5144 33.7021 41.5296 33.6452 41.6091L32.6945 42.9287C32.6377 43.0081 32.6526 43.115 32.7304 43.1731L36.3062 45.8673Z" fill="#767676"/>
<path d="M37.4669 42.9742C37.5028 43.017 37.5386 43.0476 37.5536 43.0628L38.026 43.4996C38.0977 43.5638 38.2024 43.5577 38.2682 43.4844L38.5851 43.1178C38.6479 43.0445 38.6419 42.9376 38.5701 42.8704L38.1725 42.5099C38.1426 42.4824 38.1157 42.458 38.0918 42.4274L36.6357 40.7687L38.3668 41.9326C38.4386 41.9784 38.5343 41.9631 38.5881 41.899L38.9319 41.5019C38.9857 41.4408 38.9857 41.3461 38.9319 41.2789L37.5924 39.666L39.3834 40.9398C39.4193 40.9612 39.4432 40.9856 39.4761 41.0131L39.8737 41.3736C39.9455 41.4377 40.0531 41.4316 40.1159 41.3583L40.4328 40.9917C40.4926 40.9245 40.4896 40.8085 40.4179 40.7443L39.9365 40.3197C39.9216 40.3044 39.8857 40.2739 39.8408 40.2403L36.7015 38.1448C36.6297 38.0989 36.54 38.1111 36.4802 38.1784L36.1364 38.5755C36.0826 38.6396 36.0826 38.7313 36.1364 38.7985L37.6941 40.7382L35.6251 39.388C35.5534 39.3422 35.4637 39.3544 35.4039 39.4216L35.063 39.8126C35.0032 39.8798 35.0062 39.9745 35.0571 40.0417L37.4669 42.9742Z" fill="#767676"/>
<path d="M41.1676 40.0174C41.2334 40.0877 41.341 40.0907 41.4098 40.0205L41.7536 39.6814C41.8224 39.6142 41.8253 39.5042 41.7566 39.434L38.6712 36.1808C38.6054 36.1105 38.4948 36.1044 38.426 36.1716L38.0822 36.5107C38.0134 36.5779 38.0164 36.6909 38.0822 36.7612L41.1676 40.0174Z" fill="#767676"/>
<path d="M42.1625 38.05C42.4705 38.4227 43.0296 38.4716 43.3944 38.1569L43.9684 37.6621C44.3332 37.3475 44.381 36.7763 44.0731 36.4036L41.6662 33.4927C41.6034 33.4193 41.4928 33.4041 41.421 33.4652L41.0562 33.7798C40.9845 33.8439 40.9785 33.9569 41.0413 34.0303L43.3974 36.8771C43.4601 36.9504 43.4452 37.0634 43.3704 37.1275L42.9847 37.4605C42.913 37.5246 42.7994 37.5185 42.7396 37.4452L40.3835 34.5984C40.3207 34.5251 40.2101 34.5098 40.1383 34.5709L39.7736 34.8855C39.7018 34.9497 39.6958 35.0627 39.7586 35.136L42.1625 38.05Z" fill="#767676"/>
<path d="M44.8848 35.6645C44.9117 35.7134 44.9356 35.7531 44.9505 35.7715L45.3063 36.3091C45.3601 36.3885 45.4648 36.4099 45.5455 36.3549L45.9372 36.0769C46.0149 36.0219 46.0358 35.915 45.982 35.8356L45.6801 35.3866C45.6561 35.353 45.6382 35.3224 45.6203 35.2858L44.5977 33.3186L46.0029 34.8704C46.0598 34.9314 46.1584 34.9406 46.2242 34.8917L46.6518 34.5893C46.7205 34.5404 46.7414 34.4519 46.7056 34.3724L45.7817 32.4786L47.2198 34.1525C47.2497 34.183 47.2676 34.2105 47.2916 34.2472L47.5935 34.6962C47.6474 34.7757 47.752 34.797 47.8297 34.742L48.2244 34.4641C48.2961 34.4122 48.3231 34.3022 48.2662 34.2228L47.8985 33.6943C47.8865 33.676 47.8596 33.6363 47.8238 33.5935L45.2675 30.7955C45.2107 30.7344 45.118 30.7221 45.0462 30.7741L44.6187 31.0765C44.5499 31.1254 44.529 31.217 44.5648 31.2934L45.6233 33.5568L43.931 31.7424C43.8742 31.6813 43.7815 31.6691 43.7098 31.721L43.2882 32.0173C43.2164 32.0692 43.1925 32.1609 43.2284 32.2372L44.8848 35.6645Z" fill="#767676"/>
<path d="M50.6586 32.0021C50.8708 32.442 51.4001 32.6253 51.8306 32.4114L52.5063 32.0724C52.9369 31.8555 53.1163 31.3148 52.907 30.875L52.0548 29.1002C52.013 29.0117 51.9113 28.9781 51.8246 29.0208L50.9785 29.4454C50.8918 29.4882 50.8589 29.592 50.9007 29.6776L51.0891 30.0655C51.131 30.1541 51.2356 30.1938 51.3193 30.151L51.5825 30.0197L52.1326 31.159C52.1744 31.2476 52.1326 31.3515 52.0489 31.3943L51.5884 31.6264C51.5077 31.6661 51.4031 31.6356 51.3612 31.547L50.0965 28.9139C50.0576 28.8314 50.0935 28.7215 50.1742 28.6818L50.6346 28.4496C50.7213 28.4069 50.829 28.4435 50.8679 28.526L50.9875 28.7765C51.0293 28.865 51.131 28.8986 51.2177 28.8559L51.6482 28.639C51.7349 28.5962 51.7678 28.4924 51.726 28.4068L51.5705 28.0861C51.3552 27.6401 50.829 27.463 50.3984 27.6768L49.7227 28.0159C49.2862 28.2358 49.1098 28.7673 49.3251 29.2133L50.6586 32.0021Z" fill="#767676"/>
<path d="M53.8365 30.4682C53.8455 30.511 53.8515 30.5293 53.8634 30.5537L54.0817 31.1249C54.1176 31.2166 54.2132 31.2593 54.3029 31.2227L54.7484 31.0455C54.8381 31.0089 54.8799 30.9111 54.8441 30.8195L54.6168 30.2269L55.4689 29.8848L55.6961 30.4774C55.732 30.569 55.8277 30.6118 55.9114 30.5782L56.3628 30.3979C56.4525 30.3613 56.4944 30.2635 56.4585 30.1719L56.2403 29.6007C56.2313 29.5732 56.2223 29.5549 56.2014 29.5182L54.285 26.1459C54.2461 26.0787 54.1534 26.0329 54.0697 26.0665L53.116 26.4483C53.0323 26.4819 52.9845 26.5674 53.0054 26.656L53.8365 30.4682ZM55.0982 29.1914L54.4225 29.4602L53.8814 27.0317L55.0982 29.1914Z" fill="#767676"/>
<path d="M56.4688 26.7968C56.6392 27.3863 57.2491 27.71 57.8262 27.542L58.1281 27.4504C58.2716 27.4076 58.4241 27.484 58.4659 27.6306L58.7201 28.5012C58.7619 28.6478 58.6812 28.8035 58.5347 28.8494L58.2328 28.941C58.0892 28.9838 57.9368 28.9013 57.8919 28.7516L57.7215 28.1682C57.6946 28.0735 57.6019 28.0216 57.5092 28.0491L57.0518 28.1896C56.9591 28.2171 56.9083 28.3118 56.9382 28.4065L57.0967 28.9563C57.2671 29.5458 57.88 29.8848 58.457 29.7077L58.759 29.616C59.336 29.4419 59.6648 28.8158 59.4944 28.2262L59.2552 27.4015C59.0818 26.8059 58.4779 26.473 57.8949 26.6501L57.5929 26.7418C57.4464 26.7784 57.297 26.7021 57.2521 26.5524L57.1325 26.1431C57.0907 25.9965 57.1744 25.8468 57.3179 25.801L57.6199 25.7094C57.7634 25.6666 57.9158 25.743 57.9577 25.8896L57.9995 26.0301C58.0265 26.1248 58.1191 26.1767 58.2118 26.1492L58.6692 26.0087C58.7619 25.9812 58.8128 25.8865 58.7829 25.7918L58.75 25.6788C58.5796 25.0893 57.9726 24.7503 57.3896 24.9274L57.0877 25.019C56.5107 25.1931 56.1788 25.8193 56.3522 26.4088L56.4688 26.7968Z" fill="#767676"/>
<path d="M60.6702 28.1593C60.7688 28.645 61.2293 28.9536 61.7017 28.8528L62.4372 28.697C62.9066 28.5992 63.2146 28.1257 63.1159 27.6431L62.506 24.6159C62.4073 24.1302 61.9409 23.8156 61.4715 23.9133L60.736 24.0691C60.2606 24.1699 59.9586 24.6464 60.0572 25.1321L60.6702 28.1593ZM61.017 24.8297L61.5133 24.7259C61.606 24.7075 61.7017 24.7564 61.7196 24.8542L62.2997 27.7256C62.3176 27.8203 62.2548 27.9211 62.1621 27.9394L61.6658 28.0433C61.5731 28.0616 61.4745 27.9974 61.4565 27.9027L60.8795 25.0313C60.8585 24.9366 60.9243 24.8511 61.017 24.8297Z" fill="#767676"/>
<path d="M64.5955 28.3179L66.189 28.1132C66.2847 28.101 66.3505 28.0155 66.3385 27.9177L66.2847 27.4748C66.2727 27.3771 66.189 27.3129 66.0934 27.3251L65.1456 27.4473L64.6672 23.5618C64.6553 23.4641 64.5716 23.3999 64.4759 23.4121L64.0005 23.4732C63.9048 23.4854 63.842 23.571 63.854 23.6687L64.4101 28.1713C64.4161 28.266 64.5028 28.3301 64.5955 28.3179Z" fill="#767676"/>
<path d="M67.5646 27.9973L68.0429 27.9637C68.1386 27.9576 68.2074 27.8751 68.2014 27.7774L67.9084 23.2596C67.9024 23.1618 67.8217 23.0824 67.726 23.0915L67.2477 23.1251C67.152 23.1313 67.0832 23.2198 67.0892 23.3176L67.3822 27.8354C67.3882 27.9332 67.4689 28.0034 67.5646 27.9973Z" fill="#767676"/>
<path d="M69.5587 27.8843H70.0012C70.0968 27.8843 70.1716 27.8079 70.1716 27.7102L70.1746 24.8358L71.0656 27.7621C71.0865 27.8385 71.1553 27.8874 71.23 27.8874H71.7353C71.831 27.8874 71.9057 27.811 71.9057 27.7132L71.9117 23.1772C71.9117 23.0794 71.837 23.0031 71.7413 23.0031H71.2838C71.1881 23.0031 71.1134 23.0794 71.1134 23.1772L71.1104 25.627L70.3151 23.1191C70.2882 23.0489 70.2254 23 70.1507 23H69.5617C69.466 23 69.3912 23.0764 69.3912 23.1741L69.3853 27.7102C69.3882 27.8079 69.463 27.8843 69.5587 27.8843Z" fill="#767676"/>
<path d="M73.232 27.9639L74.8315 28.0983C74.9272 28.1074 75.008 28.0372 75.0169 27.9394L75.0528 27.4934C75.0618 27.3957 74.993 27.3132 74.8973 27.304L73.9495 27.2246L74.0661 25.7553L74.6641 25.8042C74.7598 25.8134 74.8405 25.7431 74.8495 25.6454L74.8854 25.2146C74.8943 25.1169 74.8256 25.0344 74.7299 25.0252L74.1289 24.9764L74.2126 23.9408L75.1604 24.0203C75.2561 24.0294 75.3368 23.9592 75.3458 23.8614L75.3817 23.4154C75.3906 23.3177 75.3219 23.2352 75.2262 23.226L73.6266 23.0916C73.531 23.0825 73.4502 23.1527 73.4413 23.2505L73.0795 27.7745C73.0675 27.8722 73.1363 27.9547 73.232 27.9639Z" fill="#767676"/>
<path d="M76.2539 28.2813L76.3825 28.2996L76.2778 28.4523C76.2539 28.4829 76.233 28.5226 76.227 28.5654L76.2091 28.6967C76.2001 28.7517 76.242 28.8067 76.2898 28.8128L76.52 28.8464C76.5678 28.8525 76.6216 28.8128 76.6276 28.7578L76.6336 28.7242C76.6395 28.6906 76.6635 28.657 76.6724 28.6448L76.8279 28.4126C76.8458 28.379 76.8578 28.3454 76.8637 28.3118L76.9444 27.7314C76.9564 27.6337 76.8996 27.5543 76.8189 27.5451L76.3645 27.4779C76.2689 27.4626 76.1851 27.5237 76.1732 27.6184L76.1074 28.0888C76.0955 28.1866 76.1582 28.266 76.2539 28.2813Z" fill="#767676"/>
<path d="M78.1564 28.5807L79.3194 28.8311C79.9084 28.9594 80.4914 28.5684 80.614 27.9697L81.1491 25.3824C81.2747 24.7746 80.895 24.1789 80.306 24.0506L79.143 23.8001C79.0503 23.7787 78.9576 23.8459 78.9397 23.9406L78.0248 28.373C78.0039 28.4707 78.0607 28.5593 78.1564 28.5807ZM79.6184 24.7074L80.1476 24.8204C80.2941 24.8509 80.3897 25.0006 80.3598 25.1503L79.8067 27.8262C79.7768 27.9758 79.6303 28.0736 79.4838 28.0431L78.9546 27.93L79.6184 24.7074Z" fill="#767676"/>
<path d="M81.6192 29.4085L82.0796 29.5399C82.1723 29.5674 82.265 29.5124 82.2889 29.4207L83.4938 25.0587C83.5207 24.964 83.4699 24.8632 83.3772 24.8357L82.9168 24.7044C82.8241 24.6769 82.7284 24.738 82.7045 24.8327L81.4996 29.1947C81.4727 29.2863 81.5265 29.381 81.6192 29.4085Z" fill="#767676"/>
<path d="M83.5533 29.9981L85.0692 30.5387C85.1589 30.5723 85.2545 30.5234 85.2874 30.4318L85.4309 30.0103C85.4638 29.9187 85.416 29.8209 85.3263 29.7873L84.4293 29.4666L84.9047 28.0768L85.4728 28.2784C85.5625 28.312 85.6582 28.2632 85.691 28.1715L85.8316 27.7622C85.8645 27.6706 85.8166 27.5728 85.7269 27.5393L85.1589 27.3377L85.4967 26.3572L86.3937 26.6779C86.4834 26.7115 86.579 26.6626 86.6119 26.571L86.7554 26.1495C86.7883 26.0579 86.7405 25.9601 86.6508 25.9265L85.1349 25.3859C85.0452 25.3523 84.9496 25.4011 84.9167 25.4928L83.4487 29.7751C83.4188 29.8698 83.4636 29.9675 83.5533 29.9981Z" fill="#767676"/>
<path d="M87.177 31.4189L87.464 31.5472C88.0142 31.7946 88.6629 31.538 88.9051 30.9759L89.243 30.1907C89.4881 29.6225 89.24 28.9687 88.6839 28.7182L88.3968 28.5899C88.2623 28.5227 88.1965 28.3639 88.2563 28.2203L88.4237 27.8323C88.4835 27.6918 88.645 27.6337 88.7825 27.6948L89.0696 27.8231C89.2071 27.8842 89.2729 28.0431 89.2131 28.1836L89.1563 28.318C89.1174 28.4066 89.1562 28.5074 89.243 28.5472L89.6795 28.7457C89.7662 28.7854 89.8648 28.7457 89.9037 28.6571L89.9515 28.5472C90.1937 27.985 89.9485 27.3252 89.3924 27.0746L89.1054 26.9463C88.5553 26.6989 87.9065 26.9555 87.6643 27.5176L87.5059 27.8812C87.2637 28.4433 87.5208 29.094 88.068 29.3476L88.355 29.4759C88.4925 29.537 88.5583 29.6958 88.4985 29.8364L88.1397 30.6673C88.0799 30.8079 87.9185 30.872 87.778 30.8109L87.4909 30.6826C87.3534 30.6215 87.2906 30.4565 87.3504 30.3129L87.5896 29.7569C87.6285 29.6683 87.5896 29.5675 87.5029 29.5278L87.0664 29.3292C86.9797 29.2895 86.881 29.3292 86.8421 29.4178L86.6149 29.9402C86.3757 30.5085 86.6269 31.1714 87.177 31.4189Z" fill="#767676"/>
<path d="M89.5817 32.5793L90.9959 33.3582C91.0796 33.4041 91.1812 33.3735 91.2261 33.288L91.4324 32.8939C91.4772 32.8084 91.4473 32.7046 91.3636 32.6587L90.5265 32.1975L91.2111 30.9023L91.7403 31.1925C91.824 31.2384 91.9257 31.2078 91.9705 31.1223L92.1709 30.7404C92.2157 30.6549 92.1858 30.5511 92.1021 30.5052L91.5729 30.2151L92.0543 29.2987L92.8914 29.7599C92.9751 29.8057 93.0768 29.7752 93.1246 29.6897L93.3309 29.2956C93.3757 29.2101 93.3458 29.1062 93.2621 29.0604L91.848 28.2815C91.7642 28.2357 91.6626 28.2662 91.6177 28.3517L89.513 32.3441C89.4651 32.4296 89.495 32.5335 89.5817 32.5793Z" fill="#767676"/>
<path d="M92.2416 34.1066L93.596 34.9863C93.6767 35.0383 93.7814 35.0138 93.8322 34.9313L94.0654 34.5556C94.1162 34.4732 94.0923 34.3663 94.0146 34.3143L93.2073 33.792L95.2614 30.4839C95.3122 30.4014 95.2883 30.2945 95.2075 30.2426L94.8039 29.9799C94.7232 29.928 94.6185 29.9524 94.5677 30.0349L92.1878 33.8653C92.137 33.9478 92.1609 34.0547 92.2416 34.1066Z" fill="#767676"/>
<path d="M94.9195 35.1422L94.6473 35.527C94.5905 35.6065 94.6115 35.7073 94.6892 35.7653L94.7939 35.8417L94.6324 35.9272C94.5965 35.9424 94.5606 35.9699 94.5367 36.0035L94.462 36.1105C94.4291 36.1563 94.441 36.2235 94.4799 36.254L94.6683 36.3915C94.7072 36.4189 94.7729 36.4098 94.8058 36.364L94.8268 36.3365C94.8477 36.309 94.8836 36.2907 94.8985 36.2846L95.1407 36.1532C95.1706 36.1318 95.1975 36.1074 95.2185 36.0799L95.5534 35.6034C95.6102 35.524 95.5952 35.4262 95.5264 35.3774L95.1557 35.1055C95.0749 35.0505 94.9733 35.0628 94.9195 35.1422Z" fill="#767676"/>
<path d="M96.6254 37.2622C96.7002 37.3233 96.8048 37.3111 96.8646 37.2378L98.1563 35.6127L98.6287 36.0037C98.7034 36.0648 98.808 36.0526 98.8678 35.9792L99.1399 35.6371C99.1997 35.5608 99.1908 35.4538 99.116 35.3927L98.6436 35.0017L99.2804 34.2014L100.022 34.8184C100.097 34.8795 100.201 34.8704 100.261 34.794L100.536 34.4458C100.596 34.3694 100.584 34.2625 100.512 34.2014L99.2655 33.1658C99.1908 33.1047 99.0861 33.1139 99.0263 33.1903L96.2248 36.7124C96.165 36.7887 96.177 36.8957 96.2487 36.9567L96.6254 37.2622Z" fill="#767676"/>
<path d="M99.0097 39.3696L99.5539 39.898C99.9007 40.2341 100.46 40.2218 100.792 39.8675L103.363 37.1061C103.429 37.0359 103.432 36.9229 103.36 36.8557L103.013 36.5196C102.944 36.4524 102.834 36.4616 102.768 36.5319L100.253 39.2321C100.188 39.3024 100.077 39.3024 100.008 39.2321L99.6406 38.8748C99.5718 38.8076 99.5628 38.6945 99.6286 38.6243L102.143 35.924C102.209 35.8537 102.212 35.7407 102.14 35.6735L101.793 35.3375C101.724 35.2703 101.614 35.2795 101.548 35.3497L98.9768 38.1111C98.6509 38.4624 98.6629 39.0336 99.0097 39.3696Z" fill="#767676"/>
<path d="M101.097 41.499L102.167 42.7207C102.23 42.7941 102.337 42.8002 102.409 42.733L102.735 42.4336C102.807 42.3695 102.813 42.2595 102.747 42.1862L102.113 41.4623L103.187 40.4788L103.587 40.9369C103.65 41.0102 103.758 41.0163 103.829 40.9491L104.143 40.659C104.215 40.5948 104.221 40.4849 104.155 40.4116L103.755 39.9534L104.511 39.26L105.145 39.9809C105.208 40.0542 105.315 40.0603 105.387 39.9931L105.713 39.6938C105.785 39.6296 105.791 39.5197 105.725 39.4463L104.655 38.2245C104.592 38.1512 104.484 38.1451 104.412 38.2123L101.106 41.2393C101.037 41.3187 101.034 41.4256 101.097 41.499Z" fill="#767676"/>
<path d="M103.082 43.8508L104.065 45.1459C104.125 45.2223 104.23 45.2375 104.304 45.1765L104.651 44.9016C104.726 44.8405 104.741 44.7336 104.681 44.6572L104.095 43.8845L107.124 41.4867C107.199 41.4257 107.214 41.3188 107.154 41.2424L106.861 40.8575C106.801 40.7812 106.696 40.7659 106.622 40.827L103.111 43.6034C103.037 43.6645 103.025 43.7714 103.082 43.8508Z" fill="#767676"/>
<path d="M106.383 48.7202L106.759 49.3831C106.999 49.8046 107.537 49.9543 107.955 49.7069L110.572 48.1521C110.99 47.9016 111.134 47.3487 110.894 46.9272L110.518 46.2643C110.273 45.8367 109.734 45.6962 109.316 45.9436L106.7 47.4984C106.278 47.7489 106.138 48.2926 106.383 48.7202ZM107.187 48.1765L109.666 46.7012C109.749 46.6523 109.848 46.6889 109.896 46.7745L110.15 47.2204C110.198 47.306 110.18 47.4129 110.096 47.4617L107.615 48.9371C107.531 48.986 107.42 48.9554 107.372 48.873L107.118 48.427C107.076 48.3415 107.106 48.2254 107.187 48.1765Z" fill="#767676"/>
<path d="M107.812 51.3869L108.024 51.8237C108.066 51.9123 108.168 51.9459 108.251 51.9031L112.228 49.8963C112.315 49.8535 112.354 49.7466 112.312 49.658L112.099 49.2212C112.058 49.1326 111.95 49.1021 111.863 49.1448L107.887 51.1517C107.803 51.1975 107.767 51.3014 107.812 51.3869Z" fill="#767676"/>
<path d="M113.079 51.3502C113.043 51.2586 112.945 51.2188 112.855 51.2555L108.762 53.015C108.675 53.0516 108.633 53.1524 108.672 53.2441L109.294 54.7561C109.33 54.8447 109.429 54.8875 109.518 54.8478L109.922 54.6737C110.012 54.637 110.051 54.5362 110.015 54.4446L109.644 53.5434L113.178 52.0253C113.265 51.9886 113.306 51.8878 113.271 51.7962L113.079 51.3502Z" fill="#767676"/>
</g>
<defs>
<clipPath id="clip0_2_1286">
<rect width="140" height="140" fill="white"/>
</clipPath>
</defs>
</svg>
